<svg xmlns="http://www.w3.org/2000/svg" viewBox="0 0 256 256">
  <defs>
    <style>
      .color-1 {
        fill: #dd73a8;
      }

      .color-2 {
        fill: #f9f4a0;
      }

      .color-3 {
        fill: #e0dc61;
      }

      .color-4 {
        fill: #dbd0a1;
      }

      .color-5 {
        fill: #aa9748;
      }

      .color-6 {
        fill: #b59e78;
      }

      .color-7 {
        fill: #e2cba1;
      }
    </style>
  </defs>
  <rect class="color-1" width="256" height="256" />
  <path class="color-2"
    d="M92.85,201.35c8.63,5.23,9,15.62,7,22.49s1.63,8.52,4,8.38,4.7-4.52,3.36-8.71-2.69-20.51,7-18.44l-13.41-8.71Z" />
  <path class="color-3"
    d="M36.33,152.39S121.7,52.05,139.13,33.05s56.32-27.49,79.11-12.51,21.9,40.45,11.18,55S123.94,207.14,123.94,207.14s-58.55-6.71-87.61-29.72C36.33,177.42,31.42,164.68,36.33,152.39Z" />
  <path class="color-2"
    d="M36.33,177.42c29.06,23,87.61,29.72,87.61,29.72l15.42-19.09c-6.65-5.24-13-10.1-17.66-13.32-15.64-10.83-85.37-22.34-85.37-22.34C31.42,164.68,36.33,177.42,36.33,177.42Z" />
  <path class="color-4" d="M83.87,199l4.76-12.64-18.58-5.82L60.51,191C67,193.76,77.3,197.08,83.87,199Z" />
  <path class="color-5"
    d="M199.47,85.74c-11.78,13.89-77.77,89-77.77,89,3.07,5.37,5.45,23.18,2.24,32.41,7.91-9.78,95.24-117.77,105.48-131.63,10.72-14.52,11.62-40-11.18-55A42.89,42.89,0,0,0,208.87,16C246,40.18,211.25,71.84,199.47,85.74Z" />
  <path class="color-6"
    d="M88.63,184.15s-56.37,33.36-64,40.81-2.23,14.86,3.58,17.35,11.27-1.19,15-5,45.37-51,45.37-51Z" />
  <path class="color-7" d="M69.86,178.53s-37.6,39-45.2,46.43-2.23,12.63,3.58,15.11,11.27-1.18,15-5,45.37-51,45.37-51Z" />
</svg>